<?xml version="1.0" encoding="UTF-8"?>
<svg id="Layer_2" data-name="Layer 2" xmlns="http://www.w3.org/2000/svg" viewBox="0 0 225 59">
  <defs>
    <style>
      .cls-1 {
        fill: #f9ae42;
      }

      .cls-2 {
        fill: #fff;
      }

      .cls-3 {
        fill: #0b1118;
      }
    </style>
  </defs>
  <g id="OBJECTS">
    <g>
      <rect class="cls-3" x="0" width="225" height="59" rx="13.13" ry="13.13"/>
      <g>
        <path class="cls-1" d="M99.55,30.51c-.02,1.79-.38,3.49-1.08,5.08-.7,1.6-1.65,2.99-2.84,4.17-1.19,1.18-2.59,2.12-4.18,2.81-1.6,.69-3.3,1.04-5.11,1.04s-3.54-.35-5.14-1.04c-1.6-.69-2.99-1.64-4.18-2.84-1.19-1.2-2.13-2.6-2.83-4.21-.69-1.61-1.04-3.31-1.04-5.12s.35-3.55,1.04-5.15c.69-1.61,1.63-3.01,2.83-4.2,1.19-1.19,2.58-2.13,4.18-2.83,1.6-.69,3.31-1.04,5.14-1.04,1.33,0,2.6,.19,3.81,.57,1.21,.38,2.34,.91,3.39,1.59V10.7c0-.44,.07-.85,.22-1.23,.15-.38,.36-.71,.62-1,.27-.29,.58-.51,.94-.66,.36-.16,.76-.24,1.2-.24s.82,.08,1.19,.24,.69,.38,.96,.66c.27,.29,.48,.62,.64,1,.16,.38,.24,.79,.24,1.23V30.51Zm-6.01-.11c0-1-.19-1.93-.57-2.81-.38-.88-.9-1.64-1.55-2.29-.66-.65-1.42-1.16-2.29-1.54-.87-.38-1.8-.57-2.8-.57s-1.93,.19-2.8,.57-1.63,.89-2.29,1.54c-.66,.65-1.17,1.41-1.54,2.29-.37,.88-.55,1.81-.55,2.81s.18,1.91,.55,2.78c.37,.88,.88,1.64,1.52,2.3,.65,.66,1.41,1.17,2.29,1.55,.88,.38,1.81,.57,2.81,.57s1.93-.19,2.8-.57c.87-.38,1.63-.9,2.29-1.55,.66-.66,1.17-1.42,1.55-2.3,.38-.88,.57-1.8,.57-2.78Z"/>
        <path class="cls-1" d="M111.77,33.08c.24,.68,.58,1.31,1.01,1.87,.43,.56,.94,1.04,1.51,1.44,.57,.4,1.2,.7,1.88,.91,.68,.21,1.4,.32,2.16,.32,1.9,0,3.4-.5,4.49-1.5,.37-.26,.73-.45,1.08-.57,.35-.12,.68-.18,1-.18,.52,0,.98,.13,1.38,.4,.41,.27,.74,.61,1,1.04,.18,.3,.32,.61,.4,.96s.1,.69,.06,1.04c-.05,.35-.16,.7-.33,1.04-.18,.34-.44,.65-.79,.93-.41,.37-.87,.73-1.38,1.07-.52,.34-1.11,.64-1.79,.9-.67,.26-1.43,.47-2.27,.62-.84,.16-1.79,.24-2.84,.24-1.83,0-3.55-.35-5.15-1.04-1.61-.69-3.01-1.64-4.21-2.84-1.2-1.2-2.15-2.6-2.85-4.2-.7-1.6-1.05-3.31-1.05-5.14s.35-3.55,1.05-5.15c.7-1.61,1.65-3.01,2.85-4.2,1.2-1.19,2.6-2.13,4.21-2.83,1.61-.69,3.32-1.04,5.15-1.04s3.51,.34,5.11,1.02c1.6,.68,3,1.61,4.21,2.78,1.21,1.17,2.17,2.55,2.88,4.14,.71,1.59,1.08,3.29,1.09,5.1,0,.85-.27,1.54-.82,2.06-.54,.53-1.26,.79-2.15,.79h-16.9Zm13.68-4.99c-.2-.76-.52-1.44-.96-2.05s-.96-1.13-1.56-1.55c-.61-.42-1.29-.75-2.05-.97-.76-.22-1.56-.33-2.41-.33s-1.65,.12-2.4,.35-1.42,.56-2.02,1c-.6,.43-1.11,.95-1.54,1.55-.42,.6-.74,1.27-.94,2.01h13.88Z"/>
        <path class="cls-1" d="M141.99,42.31c0,1.24-.24,2.4-.71,3.49-.47,1.09-1.11,2.04-1.92,2.87-.81,.82-1.76,1.47-2.85,1.94-1.09,.47-2.25,.71-3.49,.71h-.06c-.42,0-.82-.08-1.19-.24-.37-.16-.69-.37-.97-.64-.28-.27-.49-.59-.65-.96-.16-.37-.24-.77-.24-1.19s.08-.82,.24-1.18c.16-.36,.37-.67,.65-.94,.28-.27,.6-.48,.97-.64,.37-.16,.77-.24,1.19-.24h.06c.39,0,.76-.08,1.11-.24,.35-.16,.66-.36,.93-.62,.27-.26,.48-.56,.65-.9,.17-.34,.26-.71,.28-1.09V20.56c0-.42,.08-.82,.24-1.19,.16-.37,.37-.69,.65-.97,.28-.28,.6-.49,.97-.65,.37-.16,.76-.24,1.16-.24s.82,.08,1.18,.24c.36,.16,.67,.37,.94,.65,.27,.28,.48,.6,.64,.97,.16,.37,.24,.77,.24,1.19v21.75Zm-6.29-30.64c0-.46,.09-.89,.26-1.29,.17-.4,.41-.74,.71-1.04s.65-.53,1.05-.71c.41-.18,.83-.26,1.27-.26s.89,.09,1.27,.26c.39,.18,.72,.41,1.01,.71,.29,.3,.51,.64,.68,1.04s.25,.83,.25,1.29-.09,.87-.26,1.27c-.18,.41-.42,.76-.72,1.05s-.66,.53-1.05,.71c-.4,.18-.83,.26-1.29,.26s-.86-.09-1.25-.26c-.39-.18-.72-.41-1.01-.71-.29-.3-.51-.65-.68-1.05-.17-.41-.25-.83-.25-1.27Z"/>
        <path class="cls-1" d="M146.45,30.4c0-1.83,.35-3.54,1.05-5.14,.7-1.6,1.65-3,2.85-4.2,1.2-1.2,2.6-2.15,4.2-2.84,1.6-.69,3.3-1.04,5.11-1.04s3.55,.35,5.15,1.04c1.61,.69,3,1.64,4.2,2.84,1.19,1.2,2.13,2.6,2.81,4.2,.68,1.6,1.03,3.31,1.03,5.14v9.81c0,.42-.08,.82-.24,1.19-.16,.37-.37,.69-.65,.97s-.61,.5-.98,.66c-.38,.17-.78,.25-1.21,.25-.72,0-1.33-.21-1.83-.64-.5-.42-.83-.96-1-1.61-1.05,.79-2.19,1.42-3.42,1.88-1.23,.46-2.52,.69-3.86,.69-1.81,0-3.51-.35-5.11-1.04-1.6-.69-3-1.64-4.2-2.84-1.2-1.2-2.15-2.6-2.85-4.21-.7-1.61-1.05-3.31-1.05-5.12Zm6.01,0c0,.98,.19,1.91,.57,2.78,.38,.88,.9,1.64,1.55,2.3,.66,.66,1.42,1.17,2.29,1.55,.87,.38,1.8,.57,2.8,.57s1.93-.19,2.81-.57c.88-.38,1.64-.9,2.29-1.55,.65-.66,1.15-1.42,1.52-2.3,.37-.88,.55-1.8,.55-2.78s-.19-1.93-.55-2.81-.88-1.64-1.52-2.29c-.65-.65-1.41-1.16-2.29-1.54s-1.81-.57-2.81-.57-1.91,.19-2.78,.57-1.64,.89-2.3,1.54c-.66,.65-1.17,1.41-1.55,2.29s-.57,1.81-.57,2.81Z"/>
        <path class="cls-1" d="M183.9,40.34c0,.83-.28,1.53-.84,2.09s-1.26,.84-2.09,.84c-.41,0-.79-.08-1.16-.24-.37-.16-.7-.36-.98-.62-.29-.26-.51-.57-.68-.93-.17-.36-.25-.74-.25-1.15v-13.05c0-1.39,.27-2.69,.82-3.92,.54-1.23,1.29-2.3,2.23-3.21,.94-.91,2.04-1.64,3.28-2.17,1.25-.54,2.56-.8,3.95-.8s2.79,.28,4.06,.83,2.38,1.31,3.34,2.27c.96-.96,2.08-1.72,3.37-2.27,1.28-.55,2.65-.83,4.09-.83s2.71,.26,3.93,.78,2.29,1.23,3.21,2.13c.92,.9,1.66,1.96,2.22,3.16,.55,1.2,.86,2.48,.91,3.85,0,.04,0,.08,.01,.12,0,.05,.01,.09,.01,.12v12.99c0,.41-.08,.79-.24,1.15-.16,.36-.37,.67-.64,.93-.27,.26-.58,.47-.93,.62-.35,.16-.73,.24-1.14,.24s-.8-.08-1.18-.24c-.38-.16-.71-.36-.98-.62-.28-.26-.5-.57-.66-.93-.17-.36-.25-.74-.25-1.15v-13.07c-.02-.59-.15-1.14-.39-1.63s-.56-.93-.96-1.29c-.4-.36-.85-.64-1.36-.84-.51-.2-1.06-.3-1.65-.3s-1.15,.11-1.69,.33c-.54,.22-1,.52-1.4,.9-.4,.38-.71,.82-.94,1.33-.23,.51-.35,1.06-.35,1.65v12.94c0,.83-.28,1.53-.84,2.09s-1.26,.84-2.09,.84c-.41,0-.79-.08-1.16-.24-.37-.16-.7-.36-.98-.62-.29-.26-.51-.57-.68-.93-.17-.36-.25-.74-.25-1.15v-13.05c-.02-.59-.14-1.14-.37-1.65-.23-.51-.54-.94-.93-1.3-.39-.36-.84-.64-1.36-.84-.52-.2-1.07-.3-1.66-.3s-1.15,.11-1.68,.32c-.53,.21-.99,.51-1.39,.89-.4,.38-.71,.82-.94,1.32-.23,.5-.35,1.03-.35,1.61v13.02Z"/>
      </g>
      <g>
        <path class="cls-2" d="M20.23,40.34c0,.83-.28,1.53-.84,2.09s-1.26,.84-2.09,.84c-.41,0-.79-.08-1.16-.24-.37-.16-.7-.36-.98-.62-.29-.26-.51-.57-.68-.93-.17-.36-.25-.74-.25-1.15v-13.05c0-1.39,.27-2.69,.82-3.92,.54-1.23,1.29-2.3,2.23-3.21s2.04-1.64,3.28-2.17c1.25-.54,2.56-.8,3.95-.8s2.79,.28,4.06,.83,2.38,1.31,3.34,2.27c.96-.96,2.08-1.72,3.37-2.27,1.28-.55,2.64-.83,4.08-.83s2.71,.26,3.93,.78,2.29,1.23,3.21,2.13c.92,.9,1.66,1.96,2.22,3.16,.55,1.2,.86,2.48,.91,3.85,0,.04,0,.08,.01,.12,0,.05,.01,.09,.01,.12v12.99c0,.41-.08,.79-.24,1.15-.16,.36-.37,.67-.64,.93-.27,.26-.58,.47-.93,.62-.35,.16-.73,.24-1.14,.24s-.8-.08-1.18-.24c-.38-.16-.71-.36-.98-.62-.28-.26-.5-.57-.67-.93-.17-.36-.25-.74-.25-1.15v-13.07c-.02-.59-.15-1.14-.39-1.63s-.56-.93-.96-1.29c-.4-.36-.85-.64-1.36-.84-.51-.2-1.06-.3-1.65-.3s-1.15,.11-1.69,.33c-.54,.22-1,.52-1.4,.9-.4,.38-.71,.82-.94,1.33-.23,.51-.35,1.06-.35,1.65v12.94c0,.83-.28,1.53-.84,2.09-.56,.56-1.26,.84-2.09,.84-.41,0-.79-.08-1.16-.24-.37-.16-.7-.36-.98-.62-.29-.26-.51-.57-.68-.93-.17-.36-.25-.74-.25-1.15v-13.05c-.02-.59-.14-1.14-.37-1.65-.23-.51-.54-.94-.93-1.3-.39-.36-.84-.64-1.36-.84-.52-.2-1.07-.3-1.66-.3s-1.15,.11-1.68,.32c-.53,.21-.99,.51-1.38,.89s-.71,.82-.94,1.32c-.23,.5-.35,1.03-.35,1.61v13.02Z"/>
        <path class="cls-2" d="M61.7,40.31c0,.41-.07,.79-.22,1.16-.15,.37-.36,.68-.62,.94-.27,.26-.58,.47-.93,.62-.35,.16-.73,.24-1.14,.24s-.83-.08-1.21-.24c-.38-.16-.71-.36-.98-.62-.28-.26-.5-.57-.67-.94-.17-.37-.25-.76-.25-1.16v-8.95c0-1.9,.36-3.69,1.09-5.37,.73-1.68,1.72-3.15,2.98-4.4,1.26-1.26,2.72-2.25,4.4-2.98s3.46-1.09,5.35-1.09h.05c1,0,1.77,.28,2.31,.84,.54,.56,.82,1.28,.82,2.15,0,.42-.08,.82-.25,1.19-.17,.37-.39,.69-.68,.96s-.62,.48-1,.64c-.38,.16-.78,.24-1.21,.24h-.05c-1.05,0-2.05,.2-3.01,.61s-1.78,.96-2.48,1.66-1.26,1.52-1.69,2.47c-.42,.94-.64,1.95-.64,3.02v9.03Z"/>
      </g>
    </g>
  </g>
</svg>